# xmcd
#
# Track frame offsets:
#	182
#	15552
#	36155
#	53232
#	78780
#	100472
#	118370
#	140400
#	161755
#	180195
#	195372
#	213257
#	230817
#	245310
#	263257
#
# Disc length: 3736 seconds
#
# Revision: 0
# Processed by: cddbd v1.5.1PL0 Copyright (c) Steve Scherf et al.
# Submitted via: dBpowerAMP V4.0
#
DISCID=bf0e960f
DTITLE=Various Artist - Chicago Blues Festival
DYEAR=1900
DGENRE=Blues
TTITLE0=Rock Me Baby (Luther Johnson)
TTITLE1=Abide My Wish (Johnny Shines)
TTITLE2=Back To The Steel Mill (Johnny Shines)
TTITLE3=Woman Don't Lie (Luther Johnson)
TTITLE4=Back Door Man (Luther Johnson)
TTITLE5=A Long Time (Sonny Thompson)
TTITLE6=Freight Train (Johnny Shines)
TTITLE7=Big Fine Girl (Bill Warren)
TTITLE8=Love Me To Death (Koko Taylor)
TTITLE9=Wonder Why (Koko Taylor)
TTITLE10=Worry Blues (Willie Mabon)
TTITLE11=The Last Time (Jimmy Rogers)
TTITLE12=You're So Sweet (Jimmy Rogers)
TTITLE13=Hoo-Doo Man (The Aces)
TTITLE14=Hungry (Willie Mabon)
EXTD=
EXTT0=
EXTT1=
EXTT2=
EXTT3=
EXTT4=
EXTT5=
EXTT6=
EXTT7=
EXTT8=
EXTT9=
EXTT10=
EXTT11=
EXTT12=
EXTT13=
EXTT14=
PLAYORDER=
